<mxfile host="app.diagrams.net" modified="2023-06-29T12:03:33.107Z" agent="Mozilla/5.0 (Windows NT 10.0; Win64; x64) AppleWebKit/537.36 (KHTML, like Gecko) Chrome/114.0.0.0 Safari/537.36" version="21.5.0" etag="e7j8PMuecNsEA79sBEvT" type="github">
  <diagram name="第 1 页" id="j2yplrKJKtdQp9PI5hfO">
    <mxGraphModel>
      <root>
        <mxCell id="0" />
        <mxCell id="1" parent="0" />
      </root>
    </mxGraphModel>
  </diagram>
</mxfile>
